<svg width="117" height="124" viewBox="0 0 117 124" fill="none" xmlns="http://www.w3.org/2000/svg">
<path d="M116.564 115.918C116.014 117.431 115.601 118.806 115.051 119.906C114.639 120.869 114.089 121.831 113.401 122.519C112.026 123.894 111.063 124.031 109.551 122.794C104.601 118.806 99.6504 114.818 95.8002 109.73C91.95 104.643 87.6873 99.83 84.2496 94.4672C79.8494 87.5919 74.3491 81.8166 69.3989 75.4913C68.0238 73.8412 66.7863 72.0536 65.4112 70.541C64.7237 69.716 63.7611 69.0284 62.7986 68.0659C61.011 69.441 59.4984 70.816 57.9858 72.0536C55.6482 73.9787 53.3106 76.0413 50.973 78.1039C49.0479 79.8915 47.1228 81.6791 45.1977 83.4667C42.1725 86.3543 39.0099 89.3795 35.9847 92.2671C33.9221 94.3297 31.997 96.6673 29.7969 98.7299C27.8718 100.518 25.8092 102.03 23.7466 103.68C21.684 105.468 19.6214 107.118 17.5588 109.043C15.4962 110.968 13.4336 112.893 11.5085 114.818C9.99594 116.331 8.20835 116.468 6.42077 115.643C5.0457 115.093 3.67063 114.268 2.29556 113.306C1.88304 113.031 1.47052 112.068 1.60803 111.656C2.15805 110.28 2.70808 108.768 3.67063 107.668C6.55827 104.505 9.72093 101.48 12.8836 98.4549C16.1838 95.2923 19.4839 92.2671 22.9216 89.242C30.0719 82.9166 37.2223 76.4538 43.6851 69.441C46.5728 66.2783 49.8729 63.3907 53.0356 60.3655C53.4481 59.953 53.8606 59.403 54.6857 58.5779C51.798 55.4153 49.0479 52.1151 46.1602 49.09C44.3726 47.0274 42.1725 45.3773 40.5225 43.1772C36.6723 37.8144 31.5845 33.5517 26.9093 29.014C24.8467 27.0889 22.7841 25.3013 20.584 23.5137C18.7964 22.0011 17.2838 20.076 15.9087 18.0134C14.2587 15.4008 11.921 13.0632 9.85844 10.7256C8.48337 9.35049 6.97079 8.25043 5.45822 6.87536C3.80814 5.5003 3.53312 4.26273 4.22066 2.75016C4.90819 1.23758 6.83329 2.29469e-05 8.48337 0.412543C10.271 0.962571 12.1961 1.6501 13.7086 2.88767C17.9713 6.46284 22.3716 9.76301 26.6343 13.2007C32.272 17.7384 37.3598 22.9637 42.31 28.1889C48.7729 34.9268 54.9607 41.8021 61.286 48.6774C61.6985 49.09 62.111 49.365 62.6611 49.915C63.2111 49.5025 63.7611 49.09 64.3111 48.6774C67.1988 46.3398 70.2239 44.0022 72.9741 41.3896C78.3368 36.3018 84.5246 31.9016 89.8874 26.8139C97.4503 19.6635 104.463 12.1006 111.613 4.67525C112.576 3.71271 113.401 2.33764 115.189 2.20013C116.426 3.30019 116.564 4.67525 116.151 6.18783C114.914 11.9631 112.714 17.1884 108.451 21.4511C105.426 24.4762 102.538 27.7764 99.6504 31.0766C96.3502 34.9268 92.6375 38.2269 88.7874 41.5271C86.1747 43.7272 83.6996 46.2023 81.2245 48.6774C79.5744 50.3275 77.9243 51.8401 76.2742 53.4902C74.7617 55.0028 73.2491 56.5153 71.599 58.3029C73.7991 61.1906 75.9992 63.8032 78.0618 66.5533C82.3245 72.1911 86.5872 77.8289 90.85 83.4667C94.0126 87.7294 97.1753 91.9921 100.475 96.1173C105.013 101.893 109.826 107.53 114.364 113.168C115.189 113.993 115.876 114.956 116.564 115.918Z" fill="black"/>
<path d="M43.2727 1.1001C50.0105 7.1504 56.4733 13.3382 61.8361 21.0386C66.9238 13.6132 74.0742 8.38796 79.987 1.65012C82.8746 2.33766 84.3872 4.67527 85.4873 7.01289C86.3123 8.66297 85.0747 10.038 83.9747 11.1381C80.3995 14.4383 76.6868 17.7384 72.9741 20.9011C70.774 22.8262 68.7114 24.6138 66.5113 26.5389C65.4113 27.5014 64.3112 28.464 63.2112 29.289C61.4236 30.8016 60.461 30.9391 58.8109 29.4265C53.9982 25.3013 49.4605 21.1761 45.3353 16.3634C43.8227 14.5758 42.3101 12.9257 40.66 11.2756C39.56 10.1755 38.3224 9.07549 38.5974 7.42541C39.01 5.2253 39.835 3.1627 41.8976 1.92514C42.1726 1.51262 42.5851 1.37511 43.2727 1.1001Z" fill="black"/>
<path d="M115.189 83.7416C114.914 84.1541 114.501 84.8417 113.951 85.5292C112.713 87.4543 111.338 87.3168 109.963 86.3542C106.801 84.1541 103.775 81.679 101.713 78.1038C101.025 76.7288 99.9253 75.6287 98.9628 74.3911C96.7626 71.641 94.5625 69.0284 92.4999 66.2783C91.3999 64.9032 90.4373 63.5281 89.1998 62.153C87.6872 60.228 87.4122 58.9904 88.6497 56.9278C88.9248 56.3778 89.1998 55.9652 89.6123 55.5527C94.7 50.6025 99.5128 45.2397 105.563 41.1145C106.388 40.5645 107.488 40.0144 108.313 39.4644C109.138 38.7769 109.963 38.0893 110.513 37.2643C111.476 35.6142 112.576 34.7892 114.776 35.0642C114.914 37.9518 115.051 40.702 113.126 43.3146C111.063 46.2023 108.176 48.1273 105.563 50.465C103.913 51.9775 101.988 53.3526 100.2 54.8652C98.4127 56.5153 98.2752 57.0653 99.6503 58.9904C100.75 60.6405 102.125 62.153 103.363 63.8031C104.738 65.8657 106.113 67.9283 107.351 70.1284C110.101 74.5287 112.576 79.0664 115.189 83.7416Z" fill="black"/>
<path d="M33.3721 54.3152C33.0971 55.4153 32.822 56.1028 32.6845 56.9278C32.4095 61.053 30.0719 63.8032 27.0467 66.2783C20.0339 72.3286 13.0211 78.5164 6.0082 84.5667C5.32067 85.1167 4.77064 85.9418 3.9456 86.2168C3.25807 86.4918 2.02051 86.3543 1.60799 85.9418C1.19546 85.5292 1.19547 84.4292 1.33297 83.6042C1.47048 82.9166 1.883 82.3666 2.29552 81.8166C6.97075 76.0413 12.0585 70.541 17.8338 65.8658C20.0339 64.0782 22.234 62.2906 24.4341 60.6405C24.9841 60.228 25.5342 59.953 26.3592 59.403C24.9841 57.7529 24.0216 56.5153 23.0591 55.4153C21.409 53.4902 19.8964 51.5651 18.1088 49.7775C13.8461 45.1022 9.58338 40.5645 5.32067 36.0268C4.49563 35.2018 3.53308 34.3767 2.98305 33.4142C2.57053 32.7266 2.43303 31.7641 2.57053 31.0765C3.39557 28.4639 4.49563 27.6389 6.97075 29.564C8.20831 30.664 9.58338 31.6266 10.6834 32.7266C17.1463 39.0519 24.4341 44.6897 30.2094 51.7026C31.172 52.5276 32.272 53.3527 33.3721 54.3152Z" fill="black"/>
<path d="M86.7246 117.018C85.4871 118.256 84.5245 118.668 83.012 118.118C77.5117 115.918 72.6989 113.031 68.8488 108.63C66.5111 106.018 64.4485 103.268 62.2484 100.517C61.6984 99.8299 60.8734 99.2799 59.9108 98.3173C58.1232 99.8299 56.4731 101.205 54.8231 102.718C49.5978 107.805 44.51 112.756 39.4223 117.843C39.0098 118.256 38.4597 118.531 38.0472 118.806C37.2222 119.356 36.5346 119.768 35.7096 118.943C34.8846 118.118 34.8846 117.293 35.2971 116.331C35.5721 115.781 35.8471 115.368 36.2596 114.956C38.1847 113.031 40.2473 111.105 42.1724 109.043C45.6101 105.468 49.1853 102.03 52.3479 98.3173C55.0981 95.1547 58.6732 93.6421 62.5234 92.5421C64.1735 91.992 65.6861 92.4046 67.0612 93.9171C71.1864 98.5924 75.7241 103.13 79.8493 107.805C82.3244 110.555 84.2495 113.718 86.7246 117.018Z" fill="black"/>
<path d="M64.4485 3.57518C66.2361 1.51257 67.7487 -0.550027 70.9114 0.412521C71.3239 1.37507 70.9114 2.20011 70.2238 2.88764C68.1612 5.08775 66.2361 7.28786 64.036 9.48797C62.5234 11.0005 61.8359 10.863 60.4608 9.48797C59.6358 8.66293 58.6732 7.97539 57.8482 7.42537C55.5106 5.91279 54.8231 3.57518 54.6855 0.962547C54.6855 0.687534 54.9606 0.41252 55.2356 0C58.3982 0.41252 61.1484 2.0626 64.4485 3.57518Z" fill="black"/>
<path d="M4.77069 58.1654C3.67063 57.2029 2.70808 56.5153 1.88304 55.6903C0.645482 54.4527 0.507975 53.0777 1.33302 52.1151C2.43307 50.8775 4.35817 50.19 5.45822 51.015C7.65833 52.5276 9.72093 54.1777 12.0585 55.8278C11.646 56.5153 11.5085 57.0653 11.096 57.4779C9.30841 59.5405 7.52082 61.6031 5.73323 63.5282C5.0457 64.2157 4.35817 64.9032 3.53312 65.3158C2.9831 65.5908 1.88304 65.5908 1.47052 65.3158C1.058 65.0407 0.920495 63.8032 1.19551 63.2532C1.74554 62.0156 2.70808 61.053 3.53312 59.953C3.80814 59.2655 4.22066 58.8529 4.77069 58.1654Z" fill="black"/>
<path d="M57.4359 114.268C56.7484 115.368 56.3359 116.331 55.6483 117.156C55.0983 117.843 54.5483 118.531 53.7232 118.806C53.1732 119.081 52.3482 118.806 51.9356 118.531C51.6606 118.393 51.5231 117.431 51.6606 117.018C52.6232 114.131 54.2733 111.656 57.1609 110.28C58.3985 109.593 59.7735 110.005 60.8736 110.968C62.1111 111.931 63.2112 113.031 64.3113 114.131C64.5863 114.406 64.9988 114.818 65.1363 115.231C65.4113 116.193 65.4113 117.156 64.4488 117.843C63.6237 118.531 62.7987 118.256 62.1112 117.706C60.5986 116.606 59.086 115.506 57.4359 114.268Z" fill="black"/>
<path d="M115.326 54.1777C114.776 55.2778 114.364 56.2403 113.676 56.9279C112.439 58.3029 112.576 59.678 113.676 61.0531C114.226 61.8781 114.914 62.5656 115.326 63.3907C116.014 64.4907 115.876 65.4533 114.776 66.1408C113.814 66.8284 112.714 66.9659 111.889 66.0033C110.376 64.2157 108.726 62.2906 107.351 60.3655C107.076 59.953 107.076 58.9905 107.351 58.5779C108.313 56.5153 112.164 54.3152 115.326 54.1777Z" fill="black"/>
</svg>
