<svg width="169" height="144" viewBox="0 0 169 144" fill="none" xmlns="http://www.w3.org/2000/svg">
<path d="M123.438 0C106.688 0 92.25 7.96094 84.375 21.1484C76.5 7.96094 62.0625 0 45.3125 0C33.2993 0.0144725 21.7823 4.7931 13.2877 13.2877C4.7931 21.7823 0.0144725 33.2993 0 45.3125C0 67.6484 14.0625 90.9922 41.7188 114.68C54.4883 125.546 68.2761 135.156 82.8906 143.375C83.3467 143.621 83.8568 143.75 84.375 143.75C84.8932 143.75 85.4033 143.621 85.8594 143.375C100.474 135.156 114.262 125.546 127.031 114.68C154.688 90.9922 168.75 67.6484 168.75 45.3125C168.736 33.2993 163.957 21.7823 155.462 13.2877C146.968 4.7931 135.451 0.0144725 123.438 0Z" fill="black"/>
<path d="M6 46.0625C6 91.4297 73.1875 131.578 84.125 137.797C95.0625 131.578 162.25 91.375 162.25 46.0625C162.238 35.7063 158.118 25.7778 150.795 18.4548C143.472 11.1319 133.544 7.01241 123.188 7C106.695 7 92.8359 15.8359 87.0156 30.0547C86.7802 30.6278 86.3797 31.1181 85.865 31.4631C85.3503 31.8081 84.7446 31.9923 84.125 31.9923C83.5054 31.9923 82.8997 31.8081 82.385 31.4631C81.8703 31.1181 81.4698 30.6278 81.2344 30.0547C75.4141 15.8359 61.5547 7 45.0625 7C34.7063 7.01241 24.7778 11.1319 17.4548 18.4548C10.1319 25.7778 6.01241 35.7063 6 46.0625Z" fill="white"/>
</svg>
