<svg width="169" height="144" viewBox="0 0 169 144" fill="none" xmlns="http://www.w3.org/2000/svg">
<path d="M123.438 0C106.688 0 92.25 7.96094 84.375 21.1484C76.5 7.96094 62.0625 0 45.3125 0C33.2993 0.0144725 21.7823 4.7931 13.2877 13.2877C4.7931 21.7823 0.0144725 33.2993 0 45.3125C0 67.6484 14.0625 90.9922 41.7188 114.68C54.4883 125.546 68.2761 135.156 82.8906 143.375C83.3467 143.621 83.8568 143.75 84.375 143.75C84.8932 143.75 85.4033 143.621 85.8594 143.375C100.474 135.156 114.262 125.546 127.031 114.68C154.688 90.9922 168.75 67.6484 168.75 45.3125C168.736 33.2993 163.957 21.7823 155.462 13.2877C146.968 4.7931 135.451 0.0144725 123.438 0Z" fill="#C82424"/>
</svg>
