<svg width="481" height="110" viewBox="0 0 481 110" fill="none" xmlns="http://www.w3.org/2000/svg">
<path d="M0.75 2.7H24.3C32.1 2.7 38.95 3.7 44.85 5.69999C50.75 7.69999 55.35 10.55 58.65 14.25C61.95 17.95 63.6 22.3 63.6 27.3C63.6 33.5 61.1 38.7 56.1 42.9C51.1 47 44.3 49.75 35.7 51.15C45.7 52.45 53.6 55.45 59.4 60.15C65.3 64.85 68.25 71.2 68.25 79.2C68.25 88.6 64.2 95.75 56.1 100.65C48 105.55 37.45 108 24.45 108H0.75V2.7ZM24.45 106.5C30.75 106.5 36.25 104.75 40.95 101.25C45.65 97.65 48 90.3 48 79.2C48 68.1 45.65 60.8 40.95 57.3C36.25 53.7 30.75 51.9 24.45 51.9H20.25V106.5H24.45ZM21.3 50.4C27.3 50.4 32.45 48.7 36.75 45.3C41.15 41.8 43.35 35.8 43.35 27.3C43.35 18.8 41.15 12.85 36.75 9.45C32.45 5.95 27.3 4.2 21.3 4.2H20.25V50.4H21.3ZM137.303 109.65C129.303 109.65 122.553 108.1 117.053 105C111.653 101.8 107.403 96.25 104.303 88.35C101.303 80.35 99.8027 69.35 99.8027 55.35C99.8027 41.35 101.303 30.4 104.303 22.5C107.403 14.5 111.653 8.94999 117.053 5.84999C122.553 2.64999 129.303 1.04999 137.303 1.04999C145.203 1.04999 151.853 2.64999 157.253 5.84999C162.753 8.94999 167.003 14.5 170.003 22.5C173.103 30.4 174.653 41.35 174.653 55.35C174.653 69.35 173.103 80.35 170.003 88.35C167.003 96.25 162.753 101.8 157.253 105C151.853 108.1 145.203 109.65 137.303 109.65ZM120.053 55.35C120.053 70.65 120.803 82.15 122.303 89.85C123.803 97.45 125.753 102.4 128.153 104.7C130.553 107 133.603 108.15 137.303 108.15C141.003 108.15 144.003 107 146.303 104.7C148.703 102.4 150.653 97.45 152.153 89.85C153.653 82.15 154.403 70.65 154.403 55.35C154.403 40.05 153.653 28.6 152.153 21C150.653 13.3 148.703 8.3 146.303 6C144.003 3.7 141.003 2.55 137.303 2.55C133.603 2.55 130.553 3.7 128.153 6C125.753 8.3 123.803 13.3 122.303 21C120.803 28.6 120.053 40.05 120.053 55.35ZM248.612 109.2C234.912 109.2 224.662 104.8 217.862 96C211.062 87.1 207.662 73.4 207.662 54.9C207.662 40.6 209.312 29.5 212.612 21.6C215.912 13.6 220.362 8.1 225.962 5.09999C231.562 2.1 238.412 0.599997 246.512 0.599997C256.712 0.599997 265.012 3.05 271.412 7.94999C277.912 12.85 281.162 19.9 281.162 29.1H261.662C261.662 11.1 256.612 2.1 246.512 2.1C243.412 2.1 240.512 3.2 237.812 5.4C235.212 7.49999 232.912 12.45 230.912 20.25C228.912 28.05 227.912 39.6 227.912 54.9C227.912 71.7 230.362 83.75 235.262 91.05C240.162 98.25 247.412 101.85 257.012 101.85C263.712 101.85 269.162 99.85 273.362 95.85C277.662 91.85 279.812 85.9 279.812 78C279.812 72.9 278.762 67.95 276.662 63.15C274.662 58.35 272.212 54.5 269.312 51.6C266.412 48.6 263.812 47.1 261.512 47.1V45.6H281.312V77.85V78C281.312 88.6 278.262 96.45 272.162 101.55C266.062 106.65 258.212 109.2 248.612 109.2ZM317.59 2.7H337.09V82.95C337.09 91.65 339.19 97.5 343.39 100.5C347.69 103.5 352.89 105 358.99 105C365.49 105 371.24 103.5 376.24 100.5C381.34 97.4 383.89 91.55 383.89 82.95C383.89 71.45 382.84 59.55 380.74 47.25C378.74 34.95 376.29 24.7 373.39 16.5C370.59 8.3 368.09 4.2 365.89 4.2V2.7H385.39V82.95V83.1C385.39 92.1 382.64 98.75 377.14 103.05C371.74 107.35 363.44 109.5 352.24 109.5C340.04 109.5 331.19 107.4 325.69 103.2C320.29 99 317.59 92.3 317.59 83.1V2.7ZM419.883 2.7H480.183V22.2H478.683C478.683 19.4 477.083 16.6 473.883 13.8C470.683 11 466.233 8.7 460.533 6.9C454.933 5.1 448.583 4.2 441.483 4.2H439.383V49.95H463.833V51.45H439.383V106.5H441.483C448.583 106.5 454.933 105.6 460.533 103.8C466.233 101.9 470.683 99.55 473.883 96.75C477.083 93.95 478.683 91.2 478.683 88.5H480.183V108H419.883V2.7Z" fill="black"/>
</svg>
